<svg width="60" height="60" viewBox="0 0 60 60" fill="none" xmlns="http://www.w3.org/2000/svg">
<g clip-path="url(#clip0_97_281)">
<path d="M18.375 12H41.625C42.4624 11.9992 43.2917 12.1635 44.0655 12.4836C44.8393 12.8037 45.5424 13.2733 46.1346 13.8654C46.7267 14.4575 47.1962 15.1606 47.5163 15.9344C47.8364 16.7082 48.0008 17.5376 48 18.375V40.725C48.0008 41.5624 47.8364 42.3917 47.5163 43.1655C47.1962 43.9393 46.7267 44.6424 46.1346 45.2345C45.5424 45.8267 44.8393 46.2962 44.0655 46.6163C43.2917 46.9364 42.4624 47.1008 41.625 47.1H18.375C17.5376 47.1008 16.7083 46.9364 15.9345 46.6163C15.1607 46.2962 14.4576 45.8267 13.8654 45.2345C13.2733 44.6424 12.8038 43.9393 12.4837 43.1655C12.1636 42.3917 11.9992 41.5624 12 40.725V18.375C11.9992 17.5376 12.1636 16.7082 12.4837 15.9344C12.8038 15.1606 13.2733 14.4575 13.8654 13.8654C14.4576 13.2733 15.1607 12.8037 15.9345 12.4836C16.7083 12.1635 17.5376 11.9992 18.375 12V12Z" fill="#00005B"/>
<path d="M26.46 33H20.88L19.74 36.54C19.7273 36.6043 19.691 36.6614 19.6383 36.7003C19.5855 36.7391 19.5202 36.7569 19.455 36.75H16.635C16.47 36.75 16.425 36.66 16.47 36.48L21.3 22.635C21.345 22.485 21.39 22.35 21.45 22.17C21.5104 21.8485 21.5405 21.5221 21.54 21.195C21.5356 21.1574 21.5454 21.1196 21.5677 21.089C21.5899 21.0584 21.6229 21.0373 21.66 21.03H25.545C25.65 21.03 25.725 21.075 25.74 21.15L31.215 36.525C31.26 36.69 31.215 36.765 31.065 36.765H27.93C27.877 36.7701 27.8239 36.7564 27.78 36.7262C27.7361 36.696 27.7043 36.6513 27.69 36.6L26.46 33ZM21.75 30.015H25.56C25.47 29.7 25.35 29.325 25.215 28.935C25.08 28.545 24.945 28.095 24.81 27.645C24.675 27.195 24.525 26.73 24.375 26.265C24.225 25.8 24.09 25.365 23.97 24.93C23.85 24.495 23.745 24.12 23.64 23.76H23.61C23.4752 24.4138 23.305 25.0597 23.1 25.695C22.875 26.415 22.65 27.165 22.41 27.915C22.215 28.68 21.975 29.385 21.75 30.015ZM40.11 31.62H35.355C35.4118 32.0934 35.5704 32.5488 35.82 32.955C36.0851 33.3593 36.4671 33.6732 36.915 33.855C37.5214 34.1143 38.1757 34.2421 38.835 34.23C39.3589 34.2204 39.8808 34.1652 40.395 34.065C40.8525 34.0051 41.3009 33.8892 41.73 33.72C41.805 33.66 41.85 33.69 41.85 33.84V36.135C41.8474 36.196 41.8373 36.2564 41.82 36.315C41.7929 36.3571 41.7571 36.3929 41.715 36.42C41.2353 36.6307 40.7315 36.7818 40.215 36.87C39.5134 37.0049 38.7994 37.0653 38.085 37.05C36.945 37.05 35.985 36.87 35.205 36.525C34.4711 36.2064 33.8233 35.718 33.315 35.1C32.8401 34.5221 32.488 33.8535 32.28 33.135C31.8405 31.6385 31.8614 30.0444 32.34 28.56C32.5792 27.809 32.9612 27.1112 33.465 26.505C33.9611 25.9056 34.58 25.4196 35.28 25.08C35.985 24.735 36.825 24.615 37.785 24.615C38.5849 24.5964 39.3789 24.7552 40.11 25.08C40.7246 25.3464 41.2651 25.7582 41.685 26.28C42.0838 26.7923 42.3885 27.3713 42.585 27.99C42.7758 28.5812 42.872 29.1988 42.87 29.82C42.87 30.18 42.855 30.495 42.84 30.78C42.825 31.065 42.795 31.275 42.78 31.41C42.7734 31.462 42.7488 31.5099 42.7104 31.5456C42.672 31.5812 42.6224 31.6023 42.57 31.605C42.48 31.605 42.315 31.62 42.075 31.635C41.7862 31.6678 41.4957 31.6828 41.205 31.68C40.86 31.68 40.5 31.62 40.11 31.62V31.62ZM35.355 29.43H38.52C38.91 29.43 39.195 29.43 39.375 29.415C39.4983 29.4047 39.617 29.3635 39.72 29.295V29.145C39.7207 28.9563 39.6903 28.7688 39.63 28.59C39.4987 28.1796 39.2375 27.823 38.8857 27.574C38.534 27.3251 38.1108 27.1973 37.68 27.21C37.273 27.1872 36.868 27.2827 36.514 27.485C36.1599 27.6872 35.8721 27.9877 35.685 28.35C35.51 28.6868 35.3982 29.0529 35.355 29.43V29.43Z" fill="#9999FF"/>
</g>
<defs>
<clipPath id="clip0_97_281">
<rect width="36" height="35.1" fill="white" transform="translate(12 12)"/>
</clipPath>
</defs>
</svg>
