<svg width="60" height="60" viewBox="0 0 60 60" fill="none" xmlns="http://www.w3.org/2000/svg">
<g clip-path="url(#clip0_97_271)">
<path d="M18.375 12H41.625C42.4624 11.9992 43.2917 12.1635 44.0655 12.4836C44.8393 12.8037 45.5424 13.2733 46.1346 13.8654C46.7267 14.4575 47.1962 15.1606 47.5163 15.9344C47.8364 16.7082 48.0008 17.5376 48 18.375V40.725C48.0008 41.5624 47.8364 42.3917 47.5163 43.1655C47.1962 43.9393 46.7267 44.6424 46.1346 45.2345C45.5424 45.8267 44.8393 46.2962 44.0655 46.6163C43.2917 46.9364 42.4624 47.1008 41.625 47.1H18.375C17.5376 47.1008 16.7083 46.9364 15.9345 46.6163C15.1607 46.2962 14.4576 45.8267 13.8654 45.2345C13.2733 44.6424 12.8038 43.9393 12.4837 43.1655C12.1636 42.3917 11.9992 41.5624 12 40.725V18.375C11.9992 17.5376 12.1636 16.7082 12.4837 15.9344C12.8038 15.1606 13.2733 14.4575 13.8654 13.8654C14.4576 13.2733 15.1607 12.8037 15.9345 12.4836C16.7083 12.1635 17.5376 11.9992 18.375 12V12Z" fill="#330000"/>
<path d="M29.4449 33.06H23.8649L22.7249 36.585C22.7122 36.6493 22.6759 36.7064 22.6231 36.7453C22.5704 36.7841 22.5051 36.8019 22.4399 36.795H19.6199C19.4549 36.795 19.4099 36.705 19.4549 36.525L24.2849 22.62C24.3299 22.47 24.3749 22.305 24.4349 22.125C24.4953 21.8035 24.5254 21.4771 24.5249 21.15C24.5204 21.1124 24.5303 21.0746 24.5525 21.044C24.5748 21.0134 24.6078 20.9923 24.6449 20.985H28.5299C28.6499 20.985 28.7099 21.03 28.7249 21.105L34.1999 36.555C34.2449 36.72 34.1999 36.795 34.0499 36.795H30.9149C30.8619 36.8001 30.8088 36.7864 30.7649 36.7562C30.721 36.726 30.6891 36.6813 30.6749 36.63L29.4449 33.06ZM24.7349 30.015H28.5449C28.4549 29.7 28.3349 29.325 28.1999 28.935C28.0649 28.545 27.9299 28.095 27.7949 27.645C27.6599 27.195 27.5099 26.73 27.3599 26.265C27.2099 25.8 27.0749 25.365 26.9549 24.93C26.8349 24.495 26.7299 24.12 26.6249 23.76H26.5949C26.4601 24.4138 26.2899 25.0597 26.0849 25.695C25.8599 26.415 25.6349 27.165 25.3949 27.915C25.1849 28.68 24.9599 29.385 24.7349 30.015V30.015ZM37.4699 23.55C37.2237 23.5554 36.9789 23.5117 36.7497 23.4216C36.5205 23.3315 36.3115 23.1967 36.1349 23.025C35.7912 22.6492 35.6082 22.1539 35.6249 21.645C35.616 21.397 35.6596 21.15 35.7526 20.9199C35.8457 20.6899 35.9861 20.4821 36.1649 20.31C36.5255 19.9692 37.0038 19.7811 37.4999 19.785C38.0849 19.785 38.5349 19.965 38.8649 20.31C39.1972 20.6737 39.3748 21.1526 39.3599 21.645C39.3691 21.8984 39.3273 22.1511 39.2371 22.3882C39.147 22.6252 39.0102 22.8417 38.8349 23.025C38.6582 23.205 38.4449 23.3451 38.2094 23.4356C37.9739 23.5262 37.7217 23.5652 37.4699 23.55V23.55ZM35.7899 36.57V25.02C35.7899 24.87 35.8499 24.81 35.9849 24.81H38.9549C39.0899 24.81 39.1499 24.885 39.1499 25.02V36.57C39.1499 36.735 39.0899 36.81 38.9549 36.81H36.0149C35.9834 36.8126 35.9517 36.808 35.9222 36.7967C35.8926 36.7853 35.8661 36.7674 35.8444 36.7443C35.8228 36.7213 35.8067 36.6936 35.7972 36.6634C35.7878 36.6332 35.7853 36.6013 35.7899 36.57V36.57Z" fill="#FF9A00"/>
</g>
<defs>
<clipPath id="clip0_97_271">
<rect width="36" height="35.1" fill="white" transform="translate(12 12)"/>
</clipPath>
</defs>
</svg>
