<svg width="17" height="17" viewBox="0 0 17 17" fill="none" xmlns="http://www.w3.org/2000/svg">
<path d="M13.8104 5.65886L8.5 10.8354L3.18963 5.65886C3.09475 5.56619 2.96738 5.51431 2.83475 5.51431C2.70213 5.51431 2.57476 5.56619 2.47988 5.65886C2.43394 5.70388 2.39744 5.7576 2.37253 5.8169C2.34761 5.87619 2.33478 5.93986 2.33478 6.00418C2.33478 6.06849 2.34761 6.13216 2.37253 6.19146C2.39744 6.25075 2.43394 6.30448 2.47988 6.34949L8.12919 11.8575C8.2284 11.9542 8.36146 12.0083 8.5 12.0083C8.63855 12.0083 8.77161 11.9542 8.87082 11.8575L14.5201 6.35055C14.5664 6.30551 14.6032 6.25165 14.6283 6.19216C14.6534 6.13267 14.6663 6.06875 14.6663 6.00418C14.6663 5.9396 14.6534 5.87569 14.6283 5.81619C14.6032 5.7567 14.5664 5.70285 14.5201 5.6578C14.4253 5.56513 14.2979 5.51324 14.1653 5.51324C14.0326 5.51324 13.9053 5.56513 13.8104 5.6578V5.65886Z" fill="black"/>
</svg>
