<svg width="60" height="60" viewBox="0 0 60 60" fill="none" xmlns="http://www.w3.org/2000/svg">
<rect width="60" height="60" fill="white"/>
<g clip-path="url(#clip0_97_210)">
<path d="M29.75 47.9091L19.3607 45.0249L17.0454 19.057H42.4857L40.1681 45.0209L29.75 47.9091V47.9091Z" fill="#264DE4"/>
<path d="M38.1839 43.3675L40.1644 21.1802H29.7656V45.7014L38.1839 43.3675V43.3675Z" fill="#2965F1"/>
<path d="M22.3529 30.8114L22.6383 33.9962H29.7654V30.8114H22.3529ZM21.7793 24.3652L22.0688 27.55H29.7654V24.3652H21.7793V24.3652ZM29.7654 39.0828L29.7515 39.0865L26.2045 38.1287L25.9777 35.5887H22.7806L23.2268 40.5894L29.7508 42.4004L29.7654 42.3964V39.0828Z" fill="#EBEBEB"/>
<path d="M23.0327 12H26.89V13.6131H24.6458V15.2262H26.8902V16.8393H23.0327V12ZM27.6616 12H31.5189V13.4027H29.2747V13.6832H31.5189V16.9095H27.6617V15.4365H29.9059V15.1559H27.6615V12H27.6616ZM32.2905 12H36.1479V13.4027H33.9036V13.6832H36.1479V16.9095H32.2905V15.4365H34.5348V15.1559H32.2906V12H32.2905Z" fill="black"/>
<path d="M37.1576 30.8114L37.7325 24.3652H29.7545V27.55H34.2422L33.9524 30.8114H29.7545V33.9962H33.6763L33.3065 38.1267L29.7544 39.0855V42.3989L36.2836 40.5894L36.3314 40.0513L37.0799 31.6666L37.1576 30.8114V30.8114Z" fill="white"/>
</g>
<defs>
<clipPath id="clip0_97_210">
<rect width="25.5312" height="36" fill="white" transform="translate(17 12)"/>
</clipPath>
</defs>
</svg>
