<svg width="60" height="60" viewBox="0 0 60 60" fill="none" xmlns="http://www.w3.org/2000/svg">
<rect width="60" height="60" fill="white"/>
<path d="M44.49 14.25H15.51C14.8141 14.25 14.25 14.8141 14.25 15.51V44.49C14.25 45.1859 14.8141 45.75 15.51 45.75H44.49C45.1859 45.75 45.75 45.1859 45.75 44.49V15.51C45.75 14.8141 45.1859 14.25 44.49 14.25Z" fill="#F08705"/>
<path fill-rule="evenodd" clip-rule="evenodd" d="M30.9686 22.314L34.3661 18.7286L45.75 30.1058V44.49C45.7501 44.6555 45.7176 44.8194 45.6544 44.9724C45.5911 45.1253 45.4983 45.2643 45.3813 45.3813C45.2642 45.4983 45.1253 45.5911 44.9723 45.6544C44.8194 45.7177 44.6555 45.7502 44.49 45.75H24.7305L18.6724 39.6671L30.9686 22.314Z" fill="#DF6C0C"/>
<path d="M40.3952 32.205H36.6895L33.2346 26.22H33.4596C33.6251 26.2201 33.789 26.1876 33.9419 26.1244C34.0949 26.0611 34.2338 25.9683 34.3509 25.8513C34.4679 25.7342 34.5607 25.5953 34.624 25.4423C34.6872 25.2894 34.7197 25.1255 34.7196 24.96V19.605C34.7197 19.4395 34.6872 19.2756 34.624 19.1226C34.5607 18.9697 34.4679 18.8307 34.3509 18.7137C34.2338 18.5967 34.0949 18.5039 33.9419 18.4406C33.789 18.3773 33.6251 18.3448 33.4596 18.345H26.5352C26.3697 18.3448 26.2058 18.3773 26.0529 18.4406C25.8999 18.5039 25.761 18.5967 25.6439 18.7137C25.5269 18.8307 25.4341 18.9697 25.3708 19.1226C25.3076 19.2756 25.2751 19.4395 25.2752 19.605V24.96C25.2751 25.1255 25.3076 25.2894 25.3708 25.4423C25.4341 25.5953 25.5269 25.7342 25.6439 25.8513C25.761 25.9683 25.8999 26.0611 26.0529 26.1244C26.2058 26.1876 26.3697 26.2201 26.5352 26.22H26.7658L23.311 32.205H19.6052C19.4397 32.2048 19.2758 32.2373 19.1229 32.3006C18.9699 32.3638 18.831 32.4567 18.7139 32.5737C18.5969 32.6907 18.5041 32.8297 18.4408 32.9826C18.3776 33.1356 18.3451 33.2995 18.3452 33.465V38.82C18.3451 38.9855 18.3776 39.1494 18.4408 39.3023C18.5041 39.4553 18.5969 39.5942 18.7139 39.7113C18.831 39.8283 18.9699 39.9211 19.1229 39.9844C19.2758 40.0476 19.4397 40.0801 19.6052 40.08H26.5352C26.7007 40.0801 26.8646 40.0476 27.0176 39.9844C27.1705 39.9211 27.3095 39.8283 27.4265 39.7113C27.5435 39.5942 27.6363 39.4553 27.6996 39.3023C27.7629 39.1494 27.7954 38.9855 27.7952 38.82V33.465C27.7954 33.2995 27.7629 33.1356 27.6996 32.9826C27.6363 32.8297 27.5435 32.6907 27.4265 32.5737C27.3095 32.4567 27.1705 32.3638 27.0176 32.3006C26.8646 32.2373 26.7007 32.2048 26.5352 32.205H25.4923L28.9483 26.22H31.0521L34.507 32.205H33.4652C33.2997 32.2048 33.1358 32.2373 32.9829 32.3006C32.8299 32.3638 32.691 32.4567 32.5739 32.5737C32.4569 32.6907 32.3641 32.8297 32.3008 32.9826C32.2376 33.1356 32.2051 33.2995 32.2052 33.465V38.82C32.2051 38.9855 32.2376 39.1494 32.3008 39.3023C32.3641 39.4553 32.4569 39.5942 32.5739 39.7113C32.691 39.8283 32.8299 39.9211 32.9829 39.9844C33.1358 40.0476 33.2997 40.0801 33.4652 40.08H40.3952C40.5607 40.0801 40.7246 40.0476 40.8776 39.9844C41.0305 39.9211 41.1695 39.8283 41.2865 39.7113C41.4035 39.5942 41.4963 39.4553 41.5596 39.3023C41.6229 39.1494 41.6554 38.9855 41.6552 38.82V33.465C41.6554 33.2995 41.6229 33.1356 41.5596 32.9826C41.4963 32.8297 41.4035 32.6907 41.2865 32.5737C41.1695 32.4567 41.0305 32.3638 40.8776 32.3006C40.7246 32.2373 40.5607 32.2048 40.3952 32.205V32.205Z" fill="white"/>
</svg>
