<svg width="60" height="60" viewBox="0 0 60 60" fill="none" xmlns="http://www.w3.org/2000/svg">
<path d="M24.0012 48C27.3126 48 30 45.312 30 42V36H24.0012C20.6899 36 18.0024 38.688 18.0024 42C18.0024 45.312 20.6899 48 24.0012 48Z" fill="#0ACF83"/>
<path d="M18.0024 30C18.0024 26.688 20.6899 24 24.0012 24H30V36H24.0012C20.6899 36 18.0024 33.312 18.0024 30Z" fill="#A259FF"/>
<path d="M18.0024 18C18.0024 14.688 20.6899 12 24.0012 12H30V24H24.0012C20.6899 24 18.0024 21.312 18.0024 18Z" fill="#F24E1E"/>
<path d="M30 12H35.9988C39.3101 12 41.9976 14.688 41.9976 18C41.9976 21.312 39.3101 24 35.9988 24H30V12Z" fill="#FF7262"/>
<path d="M41.9976 30C41.9976 33.312 39.3101 36 35.9988 36C32.6875 36 30 33.312 30 30C30 26.688 32.6875 24 35.9988 24C39.3101 24 41.9976 26.688 41.9976 30Z" fill="#1ABCFE"/>
</svg>
