<svg width="60" height="60" viewBox="0 0 60 60" fill="none" xmlns="http://www.w3.org/2000/svg">
<rect width="60" height="60" fill="white"/>
<g clip-path="url(#clip0_97_193)">
<path d="M33.7706 27.1267C32.8278 27.1267 32.1257 27.5907 32.1257 28.7074C32.1257 29.5488 32.5884 30.1328 33.7199 30.1328C34.6789 30.1328 35.3302 29.5665 35.3302 28.6727C35.3302 27.6597 34.7473 27.1268 33.7706 27.1268V27.1267ZM31.885 35.0113C31.6619 35.2857 31.4395 35.5773 31.4395 35.9214C31.4395 36.6079 32.313 36.8145 33.513 36.8145C34.507 36.8145 35.861 36.7447 35.861 35.8185C35.861 35.268 35.2096 35.2339 34.3865 35.1822L31.8849 35.0113H31.885ZM36.9577 27.1787C37.2656 27.5738 37.5917 28.1235 37.5917 28.9136C37.5917 30.82 36.1007 31.9364 33.9419 31.9364C33.3929 31.9364 32.8958 31.8679 32.5877 31.7821L32.0219 32.6923L33.7012 32.7951C36.6663 32.9844 38.4138 33.0705 38.4138 35.354C38.4138 37.3298 36.6833 38.4455 33.7012 38.4455C30.5994 38.4455 29.417 37.6553 29.417 36.2986C29.417 35.5254 29.7598 35.1141 30.3596 34.5465C29.7939 34.3068 29.6057 33.8777 29.6057 33.4137C29.6057 33.0356 29.7939 32.6922 30.1029 32.3656C30.4112 32.0396 30.7539 31.7128 31.1652 31.3351C30.3256 30.9229 29.6913 30.0298 29.6913 28.7586C29.6913 26.7837 30.9939 25.4273 33.6154 25.4273C34.3525 25.4273 34.7983 25.4953 35.1925 25.599H38.5345V27.0585L36.9577 27.1788" fill="#413000"/>
<path d="M41.5511 24.0575C40.574 24.0575 40.0087 23.4902 40.0087 22.5109C40.0087 21.5327 40.574 20.9999 41.5511 20.9999C42.5451 20.9999 43.1107 21.5327 43.1107 22.5109C43.1107 23.4902 42.5451 24.0575 41.5511 24.0575ZM39.34 34.3791V33.023L40.2143 32.9031C40.4543 32.8682 40.4884 32.8171 40.4884 32.5589V27.5094C40.4884 27.3208 40.4372 27.2001 40.2653 27.149L39.34 26.8223L39.5284 25.4316H43.0762V32.559C43.0762 32.8343 43.0927 32.8684 43.3505 32.9032L44.2246 33.0231V34.3793H39.3398" fill="#413000"/>
<path d="M51.0018 33.7135C50.2646 34.0738 49.1852 34.4001 48.2078 34.4001C46.1686 34.4001 45.3976 33.5765 45.3976 31.6349V27.1353C45.3976 27.0324 45.3976 26.9634 45.26 26.9634H44.0605V25.4349C45.5691 25.2627 46.1685 24.5068 46.357 22.6347H47.9853V25.0744C47.9853 25.1942 47.9853 25.2461 48.1226 25.2461H50.5388V26.9634H47.9853V31.0681C47.9853 32.0816 48.2256 32.4763 49.1505 32.4763C49.631 32.4763 50.1274 32.3565 50.5387 32.2017L51.0019 33.7136" fill="#413000"/>
<path d="M25.6089 29.2062L17.7725 21.3534C17.3216 20.9011 16.5897 20.9011 16.1383 21.3534L14.5111 22.9843L16.5751 25.0528C17.0549 24.8905 17.6049 24.9993 17.9872 25.3826C18.3715 25.7682 18.4793 26.3241 18.3133 26.8066L20.3026 28.8003C20.7838 28.6341 21.3391 28.7415 21.7234 29.1273C22.2607 29.6656 22.2607 30.5379 21.7234 31.0763C21.1861 31.615 20.3157 31.615 19.7781 31.0763C19.3741 30.6711 19.2742 30.0762 19.4788 29.5774L17.6235 27.718L17.6234 32.6109C17.7543 32.6759 17.878 32.7626 17.9871 32.8716C18.5242 33.4098 18.5242 34.2819 17.9871 34.8211C17.4498 35.3593 16.5791 35.3593 16.0424 34.8211C15.5052 34.282 15.5052 33.4098 16.0424 32.8716C16.1751 32.7387 16.3288 32.6382 16.4927 32.5708V27.6325C16.3287 27.5654 16.1752 27.4656 16.0423 27.3317C15.6354 26.9242 15.5374 26.3257 15.7461 25.8249L13.7114 23.7854L8.33858 29.1699C7.88714 29.6226 7.88714 30.3561 8.33858 30.8084L16.1745 38.6612C16.6257 39.1135 17.3573 39.1135 17.8091 38.6612L25.6088 30.8455C26.0601 30.393 26.0601 29.6593 25.6088 29.2069" fill="#F05133"/>
</g>
<defs>
<clipPath id="clip0_97_193">
<rect width="43" height="18" fill="white" transform="translate(8 21)"/>
</clipPath>
</defs>
</svg>
