<svg width="33" height="32" viewBox="0 0 33 32" fill="none" xmlns="http://www.w3.org/2000/svg">
<path d="M29.3517 0H4.20885C2.31599 0 0.780273 1.53571 0.780273 3.42857V28.5714C0.780273 30.4643 2.31599 32 4.20885 32H29.3517C31.2446 32 32.7803 30.4643 32.7803 28.5714V3.42857C32.7803 1.53571 31.2446 0 29.3517 0ZM20.5874 27.4071C19.9874 27.5143 19.766 27.1429 19.766 26.8357C19.766 26.45 19.7803 24.4786 19.7803 22.8857C19.7803 21.7714 19.4088 21.0643 18.9731 20.6929C21.616 20.4 24.4017 20.0357 24.4017 15.4714C24.4017 14.1714 23.9374 13.5214 23.1803 12.6857C23.3017 12.3786 23.7088 11.1143 23.0588 9.47143C22.066 9.16429 19.7946 10.75 19.7946 10.75C18.8517 10.4857 17.8303 10.35 16.8231 10.35C15.816 10.35 14.7946 10.4857 13.8517 10.75C13.8517 10.75 11.5803 9.16429 10.5874 9.47143C9.93742 11.1071 10.3374 12.3714 10.466 12.6857C9.70885 13.5214 9.3517 14.1714 9.3517 15.4714C9.3517 20.0143 12.016 20.4 14.6588 20.6929C14.316 21 14.0088 21.5286 13.9017 22.2857C13.2231 22.5929 11.4874 23.1214 10.4517 21.2929C9.8017 20.1643 8.63027 20.0714 8.63027 20.0714C7.47313 20.0571 8.5517 20.8 8.5517 20.8C9.32313 21.1571 9.86599 22.5286 9.86599 22.5286C10.5588 24.65 13.8731 23.9357 13.8731 23.9357C13.8731 24.9286 13.8874 26.5429 13.8874 26.8357C13.8874 27.1429 13.6731 27.5143 13.066 27.4071C8.3517 25.8286 5.0517 21.3429 5.0517 16.1C5.0517 9.54286 10.066 4.56429 16.6231 4.56429C23.1803 4.56429 28.4946 9.54286 28.4946 16.1C28.5017 21.3429 25.3017 25.8357 20.5874 27.4071ZM13.5803 23.0429C13.4446 23.0714 13.316 23.0143 13.3017 22.9214C13.2874 22.8143 13.3803 22.7214 13.516 22.6929C13.6517 22.6786 13.7803 22.7357 13.7946 22.8286C13.816 22.9214 13.7231 23.0143 13.5803 23.0429ZM12.9017 22.9786C12.9017 23.0714 12.7946 23.15 12.6517 23.15C12.4946 23.1643 12.3874 23.0857 12.3874 22.9786C12.3874 22.8857 12.4946 22.8071 12.6374 22.8071C12.7731 22.7929 12.9017 22.8714 12.9017 22.9786ZM11.9231 22.9C11.8946 22.9929 11.7517 23.0357 11.6303 22.9929C11.4946 22.9643 11.4017 22.8571 11.4303 22.7643C11.4588 22.6714 11.6017 22.6286 11.7231 22.6571C11.866 22.7 11.9588 22.8071 11.9231 22.9ZM11.0446 22.5143C10.9803 22.5929 10.8446 22.5786 10.7374 22.4714C10.6303 22.3786 10.6017 22.2429 10.6731 22.1786C10.7374 22.1 10.8731 22.1143 10.9803 22.2214C11.0731 22.3143 11.1088 22.4571 11.0446 22.5143ZM10.3946 21.8643C10.3303 21.9071 10.2088 21.8643 10.1303 21.7571C10.0517 21.65 10.0517 21.5286 10.1303 21.4786C10.2088 21.4143 10.3303 21.4643 10.3946 21.5714C10.4731 21.6786 10.4731 21.8071 10.3946 21.8643ZM9.93027 21.1714C9.86599 21.2357 9.75885 21.2 9.68027 21.1286C9.6017 21.0357 9.58742 20.9286 9.6517 20.8786C9.71599 20.8143 9.82313 20.85 9.9017 20.9214C9.98027 21.0143 9.99456 21.1214 9.93027 21.1714ZM9.4517 20.6429C9.42313 20.7071 9.33027 20.7214 9.2517 20.6714C9.15884 20.6286 9.11599 20.55 9.14456 20.4857C9.17313 20.4429 9.2517 20.4214 9.34456 20.4571C9.43742 20.5071 9.48027 20.5857 9.4517 20.6429Z" fill="#B6C2E2"/>
</svg>
