<svg width="33" height="32" viewBox="0 0 33 32" fill="none" xmlns="http://www.w3.org/2000/svg">
<path d="M4.33583 0C3.39284 0 2.48847 0.374602 1.82167 1.0414C1.15488 1.70819 0.780273 2.61256 0.780273 3.55556V28.4444C0.780273 29.3874 1.15488 30.2918 1.82167 30.9586C2.48847 31.6254 3.39284 32 4.33583 32H29.2247C30.1677 32 31.0721 31.6254 31.7389 30.9586C32.4057 30.2918 32.7803 29.3874 32.7803 28.4444V3.55556C32.7803 2.61256 32.4057 1.70819 31.7389 1.0414C31.0721 0.374602 30.1677 0 29.2247 0H4.33583ZM6.82472 6.22222H26.7358C28.1047 6.22222 29.2247 7.32444 29.2247 8.71111V23.2889C29.2247 23.949 28.9625 24.582 28.4957 25.0488C28.029 25.5156 27.3959 25.7778 26.7358 25.7778H6.82472C5.45583 25.7778 4.33583 24.6578 4.33583 23.2889V8.71111C4.33583 7.32444 5.43805 6.22222 6.82472 6.22222ZM7.11973 11.5596C6.68967 11.2729 6.11361 11.5812 6.11361 12.0981V12.0981C6.11361 12.3145 6.22175 12.5165 6.40178 12.6366L16.7803 19.5556L27.4469 12.4444V12.4444C27.4469 11.7795 26.7059 11.3829 26.1526 11.7518L16.7803 18L7.11973 11.5596Z" fill="#B6C2E2"/>
</svg>
