<svg width="60" height="60" viewBox="0 0 60 60" fill="none" xmlns="http://www.w3.org/2000/svg">
<path d="M44.7365 12H15.2635C13.4611 12 12 13.4611 12 15.2635V44.7365C12 46.5389 13.4611 48 15.2635 48H44.7365C46.5389 48 48 46.5389 48 44.7365V15.2635C48 13.4611 46.5389 12 44.7365 12Z" fill="#DC395F"/>
<path d="M24.031 23.3266C25.2278 23.3266 26.2302 22.3886 26.2302 21.1593C26.2302 19.9308 25.2278 18.993 24.031 18.993C22.8343 18.993 21.832 19.9308 21.832 21.1593C21.832 22.3886 22.8343 23.3266 24.031 23.3266Z" fill="white"/>
<path d="M19.4714 34.931C19.3422 35.4809 19.2773 36.0746 19.2773 36.5589C19.2773 38.4674 20.3122 39.7343 22.5115 39.7343C24.3355 39.7343 25.8141 38.651 26.8786 36.9022L26.2286 39.5112H29.8504L31.9204 31.2089C32.4378 29.1067 33.4403 28.0156 34.9605 28.0156C36.1571 28.0156 36.901 28.7598 36.901 29.9883C36.901 30.3443 36.8685 30.732 36.7392 31.1525L35.6718 34.9687C35.5101 35.5185 35.4457 36.0687 35.4457 36.5857C35.4457 38.3974 36.5126 39.7226 38.7442 39.7226C40.6523 39.7226 42.1722 38.4942 43.0132 35.5511L41.5904 35.0017C40.8787 36.9735 40.2642 37.3299 39.7792 37.3299C39.294 37.3299 39.0352 37.0068 39.0352 36.3603C39.0352 36.0693 39.1001 35.7462 39.1969 35.3573L40.2321 31.6394C40.4906 30.7664 40.5878 29.9922 40.5878 29.2809C40.5878 26.4997 38.9059 25.0482 36.8685 25.0482C34.9605 25.0482 33.0199 26.7693 32.05 28.5806L32.7612 25.3294H27.2311L26.4548 28.193H29.0422L27.4491 34.5719C26.1978 37.3531 23.8995 37.3983 23.6111 37.3336C23.1375 37.2269 22.8346 37.047 22.8346 36.4316C22.8346 36.0765 22.8993 35.5665 23.061 34.9515L25.4868 25.3294H19.3422L18.5659 28.193H21.1207L19.4714 34.931Z" fill="white"/>
</svg>
