<svg width="60" height="60" viewBox="0 0 60 60" fill="none" xmlns="http://www.w3.org/2000/svg">
<rect width="60" height="60" fill="white"/>
<path d="M12 12H48V48H12V12Z" fill="#F7DF1E"/>
<path d="M21.466 42.0842L24.2208 40.4169C24.7524 41.3592 25.2358 42.1566 26.3956 42.1566C27.5072 42.1566 28.2082 41.7218 28.2082 40.0303V28.5275H31.5912V40.0781C31.5912 43.5821 29.5373 45.1771 26.5406 45.1771C23.8342 45.1771 22.2633 43.7755 21.4658 42.0839L21.466 42.0842ZM33.4288 41.7216L36.1834 40.1268C36.9086 41.311 37.851 42.1809 39.5183 42.1809C40.9202 42.1809 41.814 41.48 41.814 40.5134C41.814 39.3535 40.8957 38.9426 39.3491 38.2662L38.5035 37.9034C36.0627 36.8646 34.4437 35.5596 34.4437 32.8047C34.4437 30.2673 36.3769 28.334 39.3976 28.334C41.5483 28.334 43.0949 29.0832 44.2064 31.0406L41.5722 32.7323C40.9922 31.6932 40.3641 31.2825 39.3975 31.2825C38.4066 31.2825 37.7783 31.9108 37.7783 32.7323C37.7783 33.7472 38.4066 34.1582 39.8565 34.7866L40.7022 35.149C43.578 36.3815 45.197 37.638 45.197 40.4651C45.197 43.5102 42.8047 45.1775 39.5907 45.1775C36.4493 45.1775 34.4194 43.6793 33.4286 41.7218" fill="black"/>
</svg>
