<svg width="33" height="32" viewBox="0 0 33 32" fill="none" xmlns="http://www.w3.org/2000/svg">
<path fill-rule="evenodd" clip-rule="evenodd" d="M0.780274 2.67346C0.780274 1.96441 1.06194 1.28441 1.56331 0.78304C2.06468 0.28167 2.74468 3.56409e-06 3.45373 3.56409e-06H30.1039C30.4553 -0.000570329 30.8033 0.0681678 31.1281 0.202282C31.4529 0.336397 31.748 0.533254 31.9966 0.781584C32.2452 1.02991 32.4424 1.32484 32.5769 1.64947C32.7114 1.97411 32.7805 2.32208 32.7803 2.67346V29.3236C32.7807 29.6751 32.7117 30.0232 32.5775 30.348C32.4432 30.6727 32.2462 30.9679 31.9978 31.2165C31.7493 31.465 31.4543 31.6622 31.1296 31.7966C30.8049 31.9311 30.4568 32.0002 30.1054 32H3.45373C3.10252 32 2.75476 31.9308 2.43031 31.7964C2.10585 31.6619 1.81107 31.4649 1.5628 31.2165C1.31452 30.968 1.11763 30.6732 0.983361 30.3486C0.849093 30.0241 0.780083 29.6763 0.780274 29.3251V2.67346ZM13.4465 12.2007H17.7795V14.3767C18.405 13.1258 20.005 12 22.4094 12C27.0188 12 28.1112 14.4916 28.1112 19.0633V27.5316H23.4465V20.1047C23.4465 17.5011 22.821 16.032 21.2326 16.032C19.029 16.032 18.1126 17.616 18.1126 20.1047V27.5316H13.4465V12.2007ZM5.44646 27.3324H10.1126V12H5.44646V27.3309V27.3324ZM10.7803 6.99928C10.7891 7.3988 10.718 7.79606 10.5712 8.16773C10.4244 8.53941 10.2048 8.87802 9.92534 9.16369C9.64589 9.44935 9.3122 9.67633 8.94384 9.83129C8.57549 9.98624 8.17989 10.0661 7.78027 10.0661C7.38065 10.0661 6.98506 9.98624 6.6167 9.83129C6.24835 9.67633 5.91466 9.44935 5.63521 9.16369C5.35576 8.87802 5.13619 8.53941 4.98938 8.16773C4.84257 7.79606 4.77148 7.3988 4.78027 6.99928C4.79754 6.21506 5.1212 5.46879 5.68193 4.92027C6.24265 4.37176 6.99587 4.06461 7.78027 4.06461C8.56468 4.06461 9.31789 4.37176 9.87862 4.92027C10.4394 5.46879 10.763 6.21506 10.7803 6.99928Z" fill="#B6C2E2"/>
</svg>
