<svg width="60" height="60" viewBox="0 0 60 60" fill="none" xmlns="http://www.w3.org/2000/svg">
<rect width="60" height="60" fill="white"/>
<path d="M33.4485 28.6351C32.7666 28.6351 32.3153 28.9135 31.7106 29.3806V26.084L31.5454 26L29.4556 26.9606V27.1077L30.264 27.5908V33.5908C31.0066 33.9055 31.672 33.9895 32.3539 33.9895C33.8774 33.9895 35.3791 32.9815 35.3791 31.092C35.3734 29.6797 34.5542 28.6351 33.4485 28.6351ZM32.6786 33.2597C32.2716 33.2597 31.9633 33.0812 31.7049 32.7766V29.7742C31.9988 29.7059 32.2994 29.6689 32.6014 29.664C33.344 29.664 33.8334 30.2517 33.8334 31.4437C33.8391 32.5985 33.4596 33.2597 32.6786 33.2597ZM40.0209 33.0338V30.6877C40.0209 29.3545 39.4929 28.6298 38.1676 28.6298C37.3097 28.6298 36.6054 28.9292 35.9897 29.5169L36.2259 29.9738C36.6769 29.6957 37.1059 29.5277 37.5459 29.5277C38.2774 29.5277 38.5636 29.9474 38.5636 30.7665V30.9818C36.3857 31.1969 35.7529 31.8951 35.7529 32.7978C35.7529 33.6849 36.3965 33.9895 37.0014 33.9895C37.5186 33.9895 38.0466 33.7742 38.5636 33.4382V33.8582H40.6426V33.092H40.076L40.0209 33.0342V33.0338ZM38.5743 33.0185C38.3527 33.0812 38.1236 33.1185 37.8925 33.1286C37.4636 33.1286 37.1613 32.924 37.1774 32.4671C37.1885 31.9265 37.5952 31.664 38.5746 31.58V33.0185H38.5743ZM44.1459 33.1548C43.2769 33.1548 42.4574 32.4831 42.4574 30.9763C42.4574 29.9055 42.7986 29.328 43.4422 29.328C43.7062 29.328 43.9094 29.4225 44.1351 29.6062L45.092 30.8292H45.2569V28.8978C44.7846 28.7294 44.2862 28.6407 43.7831 28.6354C42.0174 28.6354 40.9231 29.8585 40.9231 31.4332C40.9231 32.9717 41.9294 33.9794 43.5026 33.9794C44.2284 33.9902 44.933 33.7416 45.4826 33.2809L45.2459 32.8612C44.8666 33.0711 44.5476 33.1551 44.1459 33.1551V33.1548ZM51.2191 33.092L49.5196 30.8083L51.7471 28.8505V28.756H48.964V28.8606L49.6845 29.5329L48.0729 31.1708L50.009 33.8634H52V33.0923H51.2191V33.092Z" fill="#192D41"/>
<path d="M47.9685 33.0338V26.0843L47.7925 26L45.7134 26.9606V27.1022L46.5222 27.5852V33.0342L46.456 33.092H45.8894V33.8634H48.6009V33.0923H48.0346L47.9685 33.0345V33.0338ZM9.29246 26.7926H8V33.8742H12.3725V32.7348H9.29246V26.7926ZM15.172 28.6455C13.5769 28.6455 12.3725 29.7954 12.3725 31.3175C12.3725 32.84 13.5769 34 15.172 34C16.7671 34 17.9826 32.8452 17.9826 31.3175C17.9826 29.7902 16.7778 28.6455 15.172 28.6455V28.6455ZM15.172 32.8871C14.2809 32.8871 13.6102 32.2154 13.6102 31.3228C13.6102 30.4305 14.2812 29.7637 15.172 29.7637C16.052 29.7637 16.7452 30.4462 16.7452 31.3175C16.7452 32.2098 16.0742 32.8871 15.172 32.8871ZM21.2 28.6403C19.6049 28.6403 18.4005 29.7902 18.4005 31.3123C18.4005 32.8348 19.6049 33.9948 21.2 33.9948C22.7951 33.9948 24.0106 32.84 24.0106 31.3123C24.0106 29.7846 22.8005 28.6403 21.2 28.6403V28.6403ZM21.2 32.8766C20.3089 32.8766 19.6382 32.2046 19.6382 31.3123C19.6382 30.42 20.3092 29.7585 21.2 29.7585C22.08 29.7585 22.7732 30.4409 22.7732 31.3123C22.7732 32.2046 22.0965 32.8766 21.2 32.8766ZM29.1969 28.7612H27.5142L25.9134 30.3465V26.5354H24.676V33.8634H25.9137V31.6114L28.0805 33.8637H29.7031L26.9311 30.9763L29.1969 28.7609V28.7612Z" fill="#192D41"/>
</svg>
