<svg width="60" height="60" viewBox="0 0 60 60" fill="none" xmlns="http://www.w3.org/2000/svg">
<g clip-path="url(#clip0_97_258)">
<path d="M43.9712 32.2553C29.4209 31.0959 17.4212 34.632 14.6966 35.9653C13.1894 36.6609 13.0735 37.5305 13.3053 37.9942C13.4793 38.3421 14.2329 38.5739 14.9865 38.1681C20.7834 35.0378 32.4353 32.5451 43.9712 33.2407C44.261 33.2407 44.4929 33.0089 44.4929 32.719C44.4929 32.4871 44.261 32.2553 43.9712 32.2553ZM47.5653 27.8496C46.9276 28.5452 46.0581 29.0669 45.7682 28.8351C45.4784 28.6032 45.7682 27.7337 45.7682 27.7337C47.2175 26.8061 50 24.4294 50 22.5744C50 20.8933 48.4928 20.3715 46.9276 21.9367C45.6523 23.328 44.7248 25.0671 44.2031 26.9221C43.3915 27.7337 42.0582 28.7771 40.8988 28.7771C40.2611 28.7771 40.1452 28.3133 40.2032 27.7337C41.1886 27.7337 43.9712 26.9221 43.9712 24.6033C43.9712 24.1975 43.7973 23.8497 43.5074 23.5599C43.2176 23.27 42.8698 23.1541 42.464 23.212C41.1886 23.212 39.6235 24.4874 38.8119 26.3424C38.638 26.2844 38.4061 26.2264 38.2322 26.1105C38.4641 25.6468 38.58 25.183 38.7539 24.7192C38.9278 23.7338 38.5221 23.1541 37.7684 23.27C37.2467 23.27 36.667 23.7338 36.4931 24.7192C36.4352 25.241 36.5511 25.7627 36.725 26.1685C36.3772 27.2699 34.9859 28.6032 34.5222 28.5452C34.0584 28.4873 34.5801 26.5743 35.0439 25.125C35.3337 24.8352 35.5076 24.5453 35.6816 24.1395C35.7975 23.8497 35.7395 23.5019 35.4497 23.3859C34.754 23.0961 33.9425 23.4439 33.6526 24.1395C33.4787 24.4874 33.3048 24.8352 33.1309 25.241C32.7251 25.7047 32.1454 26.3424 31.9715 26.2844C31.7396 26.1105 32.6092 24.9511 32.4932 24.2555C32.4353 23.7338 31.9135 23.328 31.3918 23.3859C30.5802 23.5019 29.5948 25.0091 29.5948 25.0091C29.7107 24.7192 29.7687 24.4294 29.8266 24.1395C29.7687 23.5599 28.7252 23.328 28.2035 24.3714C27.8557 25.3569 27.5658 26.4004 27.4499 27.4438C27.218 27.9076 26.3485 29.2988 25.6528 29.3568C25.0731 29.4148 25.7688 26.8641 25.8847 26.7482C26.1746 26.2844 26.5803 25.2989 26.5224 24.8352C26.5224 24.6033 26.4644 24.4294 26.2905 24.3135C26.1166 24.1975 25.8847 24.1395 25.7108 24.1975C25.363 24.3135 25.0731 24.5453 24.8992 24.8352C24.6674 24.5453 24.2616 24.3714 23.8558 24.4294C21.537 24.6613 20.0878 28.7191 20.2617 30.6321C20.3776 31.6756 20.8993 32.3132 21.7689 32.1393C22.7544 32.0234 23.5659 30.5162 23.5659 30.5162C23.5659 30.5162 23.7978 31.7335 24.8992 31.6176C25.7108 31.3857 26.4064 30.864 26.9282 30.1684C26.9282 30.2263 26.8702 30.2843 26.8702 30.4002C26.6963 31.4437 28.3774 31.3278 28.4933 30.5162C29.0151 26.6322 30.2904 25.0671 30.6382 25.0671C30.9281 25.0671 29.8266 26.8641 30.4643 27.6177C30.986 28.1974 31.8556 27.7337 32.6092 27.096C32.4932 27.5597 32.4353 28.0815 32.3773 28.5452C32.3193 29.6466 32.7251 30.5162 33.7686 30.4582C35.1598 30.4002 36.6091 28.6612 37.5945 27.038C37.8264 27.2119 38.1163 27.3279 38.4061 27.3858C38.2902 27.7916 38.2902 28.1974 38.2902 28.5452C38.3481 29.8206 39.2177 30.2843 40.2611 30.2263C41.4205 30.1684 42.8118 29.2988 43.7393 28.4293C43.7393 28.4873 43.7393 28.5452 43.6813 28.5452C43.6234 29.1829 43.7393 30.2843 44.6088 30.3423C45.5943 30.4002 47.3334 29.4148 48.2029 28.3133C48.8406 27.9655 48.087 27.2699 47.5653 27.8496ZM48.4928 22.6323C48.6087 22.6323 48.6667 22.7483 48.6667 22.8642C48.6667 23.9656 46.0001 26.2264 46.0001 26.2264C46.0001 26.2264 47.7392 22.6323 48.4928 22.6323ZM42.0002 24.8931C42.1162 24.8931 42.1741 24.8932 42.2321 25.0091C42.2901 25.125 42.2901 25.183 42.2901 25.241C42.2901 25.8786 41.4785 26.3424 40.551 26.3424C41.0727 25.5888 41.5944 24.8931 42.0002 24.8931ZM24.0297 26.5743C23.9717 27.2119 22.8123 30.1684 22.2326 30.1684C21.479 30.2263 22.6384 26.0525 23.8558 26.0525C24.0877 26.0525 24.0877 26.2264 24.0297 26.5743ZM14.2329 27.3858C14.9865 27.3858 13.5952 31.2698 13.7691 32.9509C13.943 34.632 15.798 34.1683 15.6821 33.1828C15.4502 31.5017 16.6096 26.2264 17.711 26.2264C18.5226 26.2264 16.7835 29.8206 17.1313 32.0814C17.3632 33.5306 19.3342 33.1248 19.1023 32.1393C18.4646 29.1829 20.5515 26.3424 20.2617 24.2555C20.1457 23.3859 19.624 22.9222 19.1023 22.9222C17.2473 22.9222 15.7401 26.7482 15.7401 26.7482C15.7401 26.7482 15.9719 24.6033 14.4068 24.4874C12.2039 24.3714 9.94312 29.9365 10.0011 34.9798C10.0591 36.603 12.03 36.3131 11.9141 35.0378C11.7981 32.777 13.0735 27.3858 14.2329 27.3858Z" fill="#20B6FF"/>
</g>
<defs>
<clipPath id="clip0_97_258">
<rect width="40" height="17.4219" fill="white" transform="translate(10 21)"/>
</clipPath>
</defs>
</svg>
