<svg width="60" height="60" viewBox="0 0 60 60" fill="none" xmlns="http://www.w3.org/2000/svg">
<path d="M29.9707 12C20.0454 12 12 20.0468 12 29.9705C12 39.8942 20.0454 47.9415 29.9707 47.9415C39.8958 47.9415 47.9416 39.8956 47.9416 29.9706C47.9416 20.0454 39.8958 12 29.9707 12ZM29.9707 44.9467C21.6996 44.9467 14.9947 38.2419 14.9947 29.9706C14.9947 21.6996 21.6996 14.9947 29.9707 14.9947C38.2417 14.9947 44.9463 21.7038 44.9463 29.9706C44.9466 38.2373 38.2372 44.9463 29.9707 44.9463" fill="#35A7C1"/>
<path d="M34.3378 29.9707C34.3378 25.733 32.6749 21.8866 29.9707 19.0391C27.2662 21.884 25.5977 25.7377 25.5977 29.9707C25.5977 31.9076 25.9571 33.7645 26.5961 35.4854C25.6704 36.8356 24.9868 38.727 24.687 40.9022C25.642 39.772 26.8157 38.9437 28.1171 38.5352C28.6619 39.3738 29.2753 40.1725 29.9742 40.9024C30.6659 40.1733 31.2874 39.3808 31.8305 38.5352C33.1322 38.9346 34.3063 39.7732 35.2648 40.9114C34.9646 38.736 34.2813 36.8445 33.3557 35.4944C33.9858 33.7647 34.3434 31.9076 34.3434 29.9707H34.3378ZM29.9707 30.0107C28.8817 30.0107 27.999 29.128 27.999 28.0391C27.999 26.9504 28.8817 26.0678 29.9707 26.0678C31.0596 26.0678 31.9476 26.9465 31.9476 28.0447C31.9421 29.1121 31.0687 30.0107 29.9706 30.0107" fill="#35A7C1"/>
</svg>
