<svg width="60" height="60" viewBox="0 0 60 60" fill="none" xmlns="http://www.w3.org/2000/svg">
<g clip-path="url(#clip0_97_276)">
<path d="M18.375 12H41.625C42.4624 11.9992 43.2917 12.1635 44.0655 12.4836C44.8393 12.8037 45.5424 13.2733 46.1346 13.8654C46.7267 14.4575 47.1962 15.1606 47.5163 15.9344C47.8364 16.7082 48.0008 17.5376 48 18.375V40.725C48.0008 41.5624 47.8364 42.3917 47.5163 43.1655C47.1962 43.9393 46.7267 44.6424 46.1346 45.2345C45.5424 45.8267 44.8393 46.2962 44.0655 46.6163C43.2917 46.9364 42.4624 47.1008 41.625 47.1H18.375C17.5376 47.1008 16.7083 46.9364 15.9345 46.6163C15.1607 46.2962 14.4576 45.8267 13.8654 45.2345C13.2733 44.6424 12.8038 43.9393 12.4837 43.1655C12.1636 42.3917 11.9992 41.5624 12 40.725V18.375C11.9992 17.5376 12.1636 16.7082 12.4837 15.9344C12.8038 15.1606 13.2733 14.4575 13.8654 13.8654C14.4576 13.2733 15.1607 12.8037 15.9345 12.4836C16.7083 12.1635 17.5376 11.9992 18.375 12V12Z" fill="#001E36"/>
<path d="M20.1001 36.615V21.18C20.1001 21.075 20.1451 21.015 20.2501 21.015C20.5051 21.015 20.7451 21.015 21.0901 21C21.4351 20.985 21.8251 20.985 22.2301 20.97C22.6351 20.955 23.0701 20.955 23.5351 20.94C24.0001 20.925 24.4501 20.925 24.9001 20.925C26.1301 20.925 27.1501 21.075 27.9901 21.39C28.7431 21.6457 29.4297 22.0659 30.0001 22.62C30.4834 23.1049 30.8569 23.6881 31.0951 24.33C31.3222 24.9551 31.4389 25.6149 31.4401 26.28C31.4401 27.57 31.1401 28.635 30.5401 29.475C29.9373 30.3138 29.0957 30.9516 28.1251 31.305C27.1051 31.68 25.9801 31.815 24.7501 31.815C24.3901 31.815 24.1501 31.815 24.0001 31.8C23.8501 31.785 23.6401 31.785 23.3551 31.785V36.6C23.3584 36.6247 23.3568 36.6498 23.3503 36.6738C23.3437 36.6978 23.3324 36.7203 23.317 36.7399C23.3017 36.7595 23.2825 36.7758 23.2607 36.7878C23.2389 36.7999 23.2149 36.8074 23.1901 36.81H20.2801C20.1601 36.81 20.1001 36.75 20.1001 36.615ZM23.3701 23.91V28.95C23.5801 28.965 23.7751 28.98 23.9551 28.98H24.7501C25.3357 28.9807 25.9177 28.8896 26.4751 28.71C26.9533 28.5694 27.3805 28.2932 27.7051 27.915C28.0201 27.54 28.1701 27.03 28.1701 26.37C28.1842 25.9013 28.0645 25.4382 27.8251 25.035C27.575 24.6455 27.2072 24.346 26.7751 24.18C26.212 23.9594 25.6094 23.8573 25.0051 23.88C24.6151 23.88 24.2701 23.88 23.9851 23.895C23.7801 23.8816 23.5742 23.8866 23.3701 23.91V23.91ZM40.8001 28.035C40.3472 27.7965 39.8622 27.6247 39.3601 27.525C38.8087 27.4001 38.2455 27.3347 37.6801 27.33C37.3765 27.3195 37.0731 27.3549 36.7801 27.435C36.5933 27.4739 36.4275 27.5808 36.3151 27.735C36.2393 27.8567 36.1978 27.9966 36.1951 28.14C36.2021 28.2827 36.2546 28.4194 36.3451 28.53C36.4873 28.6967 36.6605 28.8343 36.8551 28.935C37.2001 29.115 37.5601 29.28 37.9201 29.43C38.7305 29.7028 39.5059 30.0704 40.2301 30.525C40.7227 30.8347 41.13 31.2627 41.4151 31.77C41.6561 32.2485 41.7747 32.7794 41.7601 33.315C41.7723 34.024 41.5682 34.7198 41.1751 35.31C40.7567 35.9088 40.1729 36.3727 39.4951 36.645C38.7601 36.96 37.8601 37.125 36.7801 37.125C36.0953 37.1278 35.412 37.0624 34.7401 36.93C34.2111 36.8386 33.6965 36.6772 33.2101 36.45C33.1578 36.4238 33.1143 36.3828 33.085 36.3322C33.0557 36.2815 33.0418 36.2234 33.0451 36.165V33.555C33.0438 33.5294 33.0486 33.5038 33.059 33.4803C33.0694 33.4569 33.0852 33.4362 33.1051 33.42C33.1262 33.4077 33.1508 33.4025 33.1751 33.4052C33.1994 33.4079 33.2222 33.4183 33.2401 33.435C33.8179 33.7756 34.4455 34.0236 35.1001 34.17C35.678 34.3204 36.2729 34.396 36.8701 34.395C37.4401 34.395 37.8451 34.32 38.1151 34.185C38.2355 34.1294 38.3376 34.0405 38.4093 33.929C38.4811 33.8174 38.5195 33.6876 38.5201 33.555C38.5201 33.345 38.4001 33.15 38.1601 32.955C37.9201 32.76 37.4251 32.535 36.6901 32.25C35.9361 31.9843 35.22 31.6212 34.5601 31.17C34.0901 30.835 33.7006 30.3994 33.4201 29.895C33.1807 29.4212 33.0622 28.8956 33.0751 28.365C33.0773 27.7249 33.2536 27.0975 33.5851 26.55C33.9661 25.9478 34.5131 25.4686 35.1601 25.17C35.8651 24.81 36.7501 24.645 37.8151 24.645C38.4375 24.6452 39.0592 24.6903 39.6751 24.78C40.118 24.8399 40.5514 24.9558 40.9651 25.125C41.031 25.1483 41.0849 25.1969 41.1151 25.26C41.1324 25.3185 41.1425 25.379 41.1451 25.44V27.885C41.1453 27.9141 41.1387 27.9429 41.1256 27.969C41.1126 27.9951 41.0936 28.0177 41.0701 28.035C40.9828 28.0664 40.8874 28.0664 40.8001 28.035V28.035Z" fill="#31A8FF"/>
</g>
<defs>
<clipPath id="clip0_97_276">
<rect width="36" height="35.1" fill="white" transform="translate(12 12)"/>
</clipPath>
</defs>
</svg>
