<svg width="60" height="60" viewBox="0 0 60 60" fill="none" xmlns="http://www.w3.org/2000/svg">
<rect width="60" height="60" fill="white"/>
<path d="M30 33.0925C31.7259 33.0925 33.125 31.6934 33.125 29.9675C33.125 28.2416 31.7259 26.8425 30 26.8425C28.2741 26.8425 26.875 28.2416 26.875 29.9675C26.875 31.6934 28.2741 33.0925 30 33.0925Z" fill="#00D8FF"/>
<path d="M30 37.1325C26.2439 37.2234 22.4972 36.7171 18.9 35.6325C17.2383 35.1058 15.6884 34.276 14.3288 33.185C13.8099 32.8123 13.3778 32.3318 13.0622 31.7765C12.7465 31.2211 12.5547 30.604 12.5 29.9675C12.5 27.9013 14.77 25.8763 18.5725 24.5513C22.2659 23.3772 26.1249 22.8082 30 22.8663C33.8234 22.8129 37.6307 23.3716 41.2775 24.5213C42.8779 25.0315 44.3752 25.8212 45.7 26.8538C46.21 27.2091 46.6356 27.6722 46.9466 28.2103C47.2577 28.7484 47.4466 29.3483 47.5 29.9675C47.5 32.115 44.9625 34.2913 40.875 35.6438C37.3474 36.693 33.6798 37.1951 30 37.1325V37.1325ZM30 24.3613C26.2926 24.3117 22.601 24.8527 19.0637 25.9638C15.5637 27.185 13.995 28.855 13.995 29.9638C13.995 31.1238 15.6813 32.9475 19.3837 34.2138C22.8251 35.2461 26.4083 35.7266 30 35.6375C33.5205 35.7005 37.0299 35.2241 40.4063 34.225C44.25 32.9513 46 31.125 46 29.9675C45.9369 29.5703 45.7922 29.1905 45.5749 28.8521C45.3576 28.5136 45.0724 28.2239 44.7375 28.0013C43.5522 27.0852 42.2146 26.3853 40.7862 25.9338C37.2975 24.8385 33.6562 24.3076 30 24.3613V24.3613Z" fill="#00D8FF"/>
<path d="M22.9 45.5538C22.3169 45.5672 21.7406 45.4257 21.23 45.1438C19.44 44.1113 18.82 41.1338 19.5713 37.1775C20.3996 33.3914 21.8348 29.7641 23.8213 26.4363V26.4363C25.6847 23.0977 28.0702 20.0787 30.8875 17.4938C32.129 16.3622 33.5611 15.4595 35.1175 14.8275C35.6805 14.5637 36.2945 14.4269 36.9163 14.4269C37.538 14.4269 38.1521 14.5637 38.715 14.8275C40.5763 15.9 41.1925 19.185 40.3238 23.4013C39.4699 26.982 38.072 30.4106 36.1788 33.5675C34.3809 36.8667 32.0705 39.8594 29.3338 42.4338C28.0472 43.6098 26.5542 44.5375 24.93 45.17C24.2798 45.4114 23.5935 45.5411 22.9 45.5538V45.5538ZM25.1163 27.1788C23.2214 30.3654 21.8458 33.8334 21.0413 37.4525C20.35 41.0963 21.0138 43.2875 21.9788 43.845C22.9788 44.4238 25.4063 43.875 28.3538 41.3C30.9663 38.8337 33.1715 35.969 34.8875 32.8125C36.7012 29.7944 38.0421 26.5165 38.8638 23.0925C39.6813 19.1238 38.975 16.6938 37.9725 16.1163C37.5968 15.9723 37.1953 15.9079 36.7933 15.927C36.3914 15.9462 35.9978 16.0485 35.6375 16.2275C34.2521 16.7992 32.9784 17.6108 31.875 18.625C29.1833 21.101 26.9046 23.9912 25.125 27.1863L25.1163 27.1788Z" fill="#00D8FF"/>
<path d="M37.0961 45.57C35.4023 45.57 33.2511 44.545 31.0111 42.6187C28.1444 40.0103 25.7185 36.9555 23.8273 33.5725V33.5725C21.8657 30.2904 20.4419 26.7157 19.6098 22.9837C19.2489 21.3418 19.1821 19.649 19.4123 17.9837C19.4655 17.366 19.6536 16.7674 19.9634 16.2303C20.2731 15.6932 20.6968 15.2305 21.2048 14.875C23.0636 13.7987 26.2173 14.905 29.4361 17.7625C32.1118 20.2902 34.384 23.2134 36.1736 26.43C38.1339 29.6354 39.5727 33.1319 40.4361 36.7887C40.8125 38.4909 40.8705 40.248 40.6073 41.9712C40.5447 42.6067 40.3454 43.2212 40.023 43.7724C39.7007 44.3237 39.2629 44.7987 38.7398 45.165C38.2375 45.4434 37.6702 45.5832 37.0961 45.57V45.57ZM25.1211 32.82C26.9353 36.053 29.2527 38.9767 31.9861 41.4812C34.7973 43.9 37.0273 44.42 37.9861 43.8562C38.9861 43.275 39.7236 40.9025 38.9636 37.0637C38.1309 33.5724 36.7509 30.2349 34.8748 27.175C33.1671 24.0964 30.9982 21.2973 28.4436 18.875C25.4136 16.185 22.9561 15.5837 21.9548 16.1637C21.6427 16.4173 21.3866 16.7329 21.2027 17.0905C21.0187 17.448 20.9109 17.8399 20.8861 18.2412C20.6873 19.7263 20.7521 21.2349 21.0773 22.6975C21.8777 26.2664 23.2432 29.6845 25.1223 32.8225L25.1211 32.82Z" fill="#00D8FF"/>
</svg>
