<svg width="60" height="60" viewBox="0 0 60 60" fill="none" xmlns="http://www.w3.org/2000/svg">
<rect width="60" height="60" fill="white"/>
<path d="M30.1925 33.0375C29.6514 33.2861 29.0585 33.6101 27.8716 34.2615C27.4216 34.5146 26.9514 34.7678 26.5138 35.0063C26.4834 34.9759 26.4519 34.9376 26.4215 34.9061C24.0736 32.3974 19.7311 30.6255 19.9156 27.2561C19.9843 26.0288 20.4061 22.8068 28.2553 18.894C34.715 15.7103 39.8551 16.5923 40.7428 18.5486C42.0185 21.3375 37.9876 26.5271 31.3164 27.2798C30.578 27.4295 29.8155 27.4114 29.0851 27.2268C28.3546 27.0422 27.6751 26.6958 27.0965 26.2133C26.7433 25.8296 26.6904 25.8071 26.5599 25.8836C26.345 25.9961 26.4834 26.3438 26.5599 26.5429C26.8144 27.0036 27.1586 27.4087 27.5723 27.7341C27.9861 28.0595 28.4608 28.2986 28.9685 28.4374C31.5938 29.0048 34.331 28.7337 36.794 27.6623C40.8373 26.0974 43.994 21.747 43.0693 18.0998C42.1411 14.4019 36.0031 13.1824 30.1959 15.2456C26.5591 16.4712 23.199 18.4005 20.3071 20.9235C17.1076 23.916 16.6014 26.517 16.8084 27.606C17.5531 31.4726 22.8834 33.9893 25.0209 35.8534C24.9084 35.9153 24.8139 35.9659 24.7295 36.0143C23.663 36.5441 19.5973 38.6693 18.5836 40.917C17.4328 43.464 18.7681 45.2899 19.6501 45.5351C20.9793 45.8535 22.3747 45.7489 23.6415 45.2358C24.9084 44.7227 25.9833 43.8267 26.7163 42.6731C27.3387 41.7165 27.7209 40.6237 27.8304 39.4877C27.9399 38.3517 27.7734 37.206 27.3451 36.1481C27.5978 35.9466 27.8673 35.7671 28.1506 35.6115C28.6951 35.2898 29.2138 34.9725 29.6739 34.7273C31.2493 33.9893 32.9686 33.6094 34.7083 33.6146C38.36 34.0444 39.0811 36.3225 38.9428 37.2821C38.878 37.6226 38.7411 37.9453 38.5412 38.2284C38.3414 38.5115 38.0832 38.7485 37.784 38.9235C37.5309 39.0844 37.4465 39.1384 37.469 39.2531C37.4994 39.4219 37.622 39.414 37.8369 39.3836C38.3855 39.2102 38.8689 38.8749 39.2235 38.4218C39.5781 37.9686 39.7873 37.4188 39.8236 36.8445C39.9361 34.5945 37.7908 32.1263 33.9928 32.1488C32.8555 32.1507 31.7297 32.375 30.6785 32.8091C30.5098 32.8789 30.3459 32.9539 30.1869 33.0341L30.1925 33.0375ZM24.7644 41.8564C23.5516 43.176 21.8641 43.6744 21.1351 43.2525C20.3476 42.8025 20.6593 40.8506 22.1476 39.4545C23.0292 38.6603 23.9819 37.9489 24.9939 37.3294C25.1705 37.2169 25.4315 37.0684 25.7454 36.8794C25.7994 36.849 25.8298 36.8333 25.8298 36.8333L26.0143 36.7208C26.2797 37.6108 26.3039 38.5553 26.0843 39.4577C25.8646 40.3601 25.4091 41.1879 24.7644 41.8564V41.8564Z" fill="#CD6799"/>
</svg>
