<svg width="60" height="60" viewBox="0 0 60 60" fill="none" xmlns="http://www.w3.org/2000/svg">
<g clip-path="url(#clip0_97_218)">
<path d="M19.8387 15.0493L29.9637 14L40.0887 15.0493L47.9274 25.3643L29.9637 45.8699L12 25.3643L19.8387 15.0493Z" fill="#FDB300"/>
<path d="M19.2762 25.3643L29.9637 45.8699L12 25.3643H19.2762Z" fill="#EA6C00"/>
<path d="M40.651 25.3643L29.9635 45.8699L47.9272 25.3643H40.651Z" fill="#EA6C00"/>
<path d="M19.2764 25.3643H40.6514L29.9639 45.8699L19.2764 25.3643Z" fill="#FDAD00"/>
<path d="M29.9639 14L19.8388 15.0493L19.2764 25.3643L29.9639 14Z" fill="#FDD231"/>
<path d="M29.9638 14L40.0889 15.0493L40.6514 25.3643L29.9638 14Z" fill="#FDD231"/>
<path d="M47.9272 25.3643L40.0885 15.0493L40.651 25.3643H47.9272Z" fill="#FDAD00"/>
<path d="M12 25.3643L19.8387 15.0493L19.2762 25.3643H12Z" fill="#FDAD00"/>
<path d="M29.9639 14L19.2764 25.3643H40.6514L29.9639 14Z" fill="#FEEEB7"/>
</g>
<defs>
<clipPath id="clip0_97_218">
<rect width="36" height="31.8857" fill="white" transform="translate(12 14)"/>
</clipPath>
</defs>
</svg>
