<svg width="60" height="60" viewBox="0 0 60 60" fill="none" xmlns="http://www.w3.org/2000/svg">
<g clip-path="url(#clip0_97_247)">
<path d="M18.375 12H41.625C42.4624 11.9992 43.2917 12.1635 44.0655 12.4836C44.8393 12.8037 45.5424 13.2733 46.1346 13.8654C46.7267 14.4575 47.1962 15.1606 47.5163 15.9344C47.8364 16.7082 48.0008 17.5376 48 18.375V40.725C48.0008 41.5624 47.8364 42.3917 47.5163 43.1655C47.1962 43.9393 46.7267 44.6424 46.1346 45.2345C45.5424 45.8267 44.8393 46.2962 44.0655 46.6163C43.2917 46.9364 42.4624 47.1008 41.625 47.1H18.375C17.5376 47.1008 16.7083 46.9364 15.9345 46.6163C15.1607 46.2962 14.4576 45.8267 13.8654 45.2345C13.2733 44.6424 12.8038 43.9393 12.4837 43.1655C12.1636 42.3917 11.9992 41.5624 12 40.725V18.375C11.9992 17.5376 12.1636 16.7082 12.4837 15.9344C12.8038 15.1606 13.2733 14.4575 13.8654 13.8654C14.4576 13.2733 15.1607 12.8037 15.9345 12.4836C16.7083 12.1635 17.5376 11.9992 18.375 12V12Z" fill="#470137"/>
<path d="M30.9298 21.225L26.4298 28.65L31.2298 36.525C31.2614 36.5793 31.2721 36.6434 31.2598 36.705C31.2448 36.765 31.1848 36.72 31.0948 36.735H27.6598C27.4198 36.735 27.2548 36.72 27.1498 36.57C26.8348 35.94 26.5048 35.325 26.1898 34.695C25.8748 34.065 25.5298 33.45 25.1698 32.805C24.8098 32.16 24.4498 31.515 24.0898 30.855H24.0598C23.7448 31.5 23.3998 32.145 23.0548 32.79C22.7098 33.435 22.3648 34.08 22.0348 34.71C21.7048 35.34 21.3448 35.985 20.9998 36.6C20.9398 36.75 20.8198 36.765 20.6548 36.765H17.3548C17.2948 36.765 17.2498 36.795 17.2498 36.72C17.2431 36.6919 17.2423 36.6628 17.2475 36.6344C17.2527 36.606 17.2637 36.5789 17.2798 36.555L21.9448 28.905L17.3998 21.21C17.3548 21.15 17.3398 21.09 17.3698 21.06C17.3881 21.0386 17.4113 21.022 17.4374 21.0115C17.4636 21.0011 17.4918 20.9971 17.5198 21H20.9248C20.9958 21.0016 21.0663 21.0116 21.1348 21.03C21.1949 21.0623 21.2464 21.1086 21.2848 21.165C21.5698 21.81 21.8998 22.455 22.2448 23.1C22.5898 23.745 22.9498 24.375 23.3248 25.005C23.6998 25.635 24.0148 26.265 24.3298 26.91H24.3598C24.6748 26.25 25.0048 25.605 25.3348 24.975C25.6648 24.345 26.0098 23.715 26.3548 23.085C26.6998 22.455 27.0298 21.81 27.3598 21.195C27.3712 21.136 27.4031 21.0828 27.4498 21.045C27.5092 21.0122 27.5783 21.0016 27.6448 21.015H30.8098C30.8276 21.011 30.8459 21.0106 30.8638 21.0137C30.8817 21.0168 30.8988 21.0235 30.9141 21.0332C30.9295 21.043 30.9427 21.0557 30.9531 21.0706C30.9636 21.0855 30.9709 21.1023 30.9748 21.12C30.9898 21.135 30.9598 21.195 30.9298 21.225V21.225ZM37.8598 37.05C36.7479 37.0683 35.6461 36.8376 34.6348 36.375C33.694 35.935 32.9055 35.2249 32.3698 34.335C31.8148 33.42 31.5448 32.28 31.5448 30.915C31.5296 29.8049 31.8147 28.7114 32.3698 27.75C32.9391 26.7729 33.7635 25.9692 34.7548 25.425C35.8048 24.84 37.0648 24.555 38.5498 24.555C38.655 24.5538 38.7602 24.5588 38.8648 24.57C38.9998 24.585 39.1498 24.585 39.3298 24.6V19.86C39.3298 19.755 39.3748 19.695 39.4798 19.695H42.5248C42.5584 19.6905 42.5926 19.6987 42.6203 19.7182C42.6481 19.7376 42.6676 19.7669 42.6748 19.8V34.11C42.6748 34.38 42.6898 34.68 42.7048 35.01C42.7198 35.34 42.7498 35.625 42.7648 35.88C42.768 35.9307 42.7553 35.9811 42.7284 36.0241C42.7015 36.0671 42.6618 36.1007 42.6148 36.12C41.8291 36.4502 41.0091 36.6917 40.1698 36.84C39.4075 36.9775 38.6345 37.0478 37.8598 37.05V37.05ZM39.3298 34.05V27.45C39.1963 27.4178 39.0611 27.3927 38.9248 27.375C38.7598 27.36 38.5948 27.345 38.4298 27.345C37.8419 27.3384 37.2608 27.4721 36.7348 27.735C36.2222 27.9904 35.7834 28.3725 35.4598 28.845C35.1298 29.325 34.9648 29.97 34.9648 30.75C34.9518 31.2765 35.0383 31.8007 35.2198 32.295C35.3649 32.6948 35.5952 33.0582 35.8948 33.36C36.184 33.636 36.5331 33.8413 36.9148 33.96C37.3166 34.0916 37.737 34.1574 38.1598 34.155C38.3848 34.155 38.5948 34.14 38.7898 34.125C38.9731 34.1381 39.1571 34.1125 39.3298 34.05V34.05Z" fill="#FF61F6"/>
</g>
<defs>
<clipPath id="clip0_97_247">
<rect width="36" height="35.1" fill="white" transform="translate(12 12)"/>
</clipPath>
</defs>
</svg>
