<svg width="60" height="60" viewBox="0 0 60 60" fill="none" xmlns="http://www.w3.org/2000/svg">
<g clip-path="url(#clip0_97_234)">
<g clip-path="url(#clip1_97_234)">
<path d="M16.1837 36.7223L14.0853 37.4992L13.9736 43.8236L21.2371 41.1351C18.7437 40.289 16.9254 38.7978 16.1837 36.7223" fill="#FDBD39"/>
<path d="M17.2818 30.0331L10 32.7284L14.0851 37.5009L16.1835 36.724C15.4435 34.6553 15.9001 32.3197 17.2818 30.0331Z" fill="#F69833"/>
<path d="M29.534 20.9054C20.2621 24.337 14.2837 31.4196 16.1837 36.7223L49.7595 24.2947C47.8595 18.992 38.8059 17.4738 29.534 20.9054" fill="#FECF33"/>
<path d="M36.4071 40.1134C45.679 36.6818 51.6675 29.6312 49.7574 24.2964L16.1816 36.7223C18.0917 42.0588 27.1352 43.5449 36.4071 40.1134Z" fill="#EE6723"/>
<path d="M49.7577 24.2947L16.1836 36.7223C16.8403 38.5597 19.3487 39.4649 22.8654 39.4649C26.2955 39.4649 30.6856 38.6053 35.2624 36.9115C44.5343 33.4799 51.0561 27.9222 49.7577 24.2947" fill="#F69833"/>
<path d="M43.0756 21.5539C39.6471 21.5539 35.2554 22.4134 30.6786 24.1073C21.4067 27.5388 14.8849 33.0949 16.1833 36.7223L49.759 24.2947C49.1007 22.4574 46.594 21.5539 43.0756 21.5539" fill="#FDBD39"/>
<path d="M41.2208 44.1597C40.2325 44.1597 38.7758 43.2562 36.8891 41.4728C34.6574 39.3636 32.1023 36.2731 29.6906 32.7723C27.2805 29.2715 25.3005 25.7724 24.1138 22.9167C22.8221 19.806 22.6371 17.8943 23.5654 17.2323C23.7804 17.0837 24.0354 17.0077 24.2954 17.0145C25.0505 17.0145 26.5238 17.5836 29.2456 20.2991L29.3056 20.3582L29.2972 20.4427C29.2789 20.6386 29.2622 20.8345 29.2472 21.0287L29.2172 21.412L28.9506 21.1401C26.0172 18.146 24.7271 17.8234 24.3071 17.8234C24.1871 17.8234 24.0921 17.847 24.0238 17.896C23.6204 18.1831 23.5938 19.5882 24.8471 22.6026C26.0122 25.4059 27.9639 28.8527 30.3423 32.3079C32.7223 35.7648 35.239 38.808 37.4324 40.8801C39.7958 43.1143 40.8608 43.3558 41.2092 43.3558C41.3292 43.3558 41.4259 43.3305 41.4992 43.2781C41.9242 42.9758 41.9242 41.4712 40.5275 38.2254L40.4625 38.0767L40.6025 37.9991C40.7425 37.9214 40.8792 37.8454 41.0058 37.7711L41.1742 37.6748L41.2525 37.8538C42.2425 40.1539 43.1692 43.0772 41.9542 43.9418C41.7392 44.0904 41.4825 44.1664 41.2208 44.1597ZM41.2208 43.805V43.9824V43.805Z" fill="#EE6723"/>
<path d="M36.6326 40.0154L36.6193 40.1911C36.3843 43.1295 35.7676 46.6624 34.1576 46.8059C34.1242 46.8093 34.0909 46.8093 34.0592 46.8093C32.9659 46.8093 31.9309 45.2219 30.9858 42.0926C30.0891 39.1305 29.3941 35.1552 29.0291 30.8978C28.6624 26.6404 28.6674 22.6026 29.0441 19.5274C29.4541 16.1768 30.2341 14.4273 31.3642 14.326C31.3975 14.3226 31.4325 14.3209 31.4658 14.3209C32.2592 14.3209 33.4542 15.2311 34.6776 19.4699L33.8792 19.6253C33.4709 18.2101 33.0259 17.0584 32.5842 16.2647C32.1759 15.5334 31.7775 15.1298 31.4658 15.1298C31.4558 15.1298 31.4458 15.1298 31.4342 15.1315C30.9442 15.1754 30.2308 16.3778 29.8341 19.627C29.4641 22.6465 29.4591 26.6252 29.8208 30.8269C30.1825 35.0302 30.8658 38.9464 31.7459 41.8545C32.1392 43.1565 32.5709 44.2306 32.9959 44.9584C33.3859 45.6306 33.7642 46.0004 34.0592 46.0004C34.0692 46.0004 34.0792 46.0004 34.0892 45.9987C34.5576 45.9582 35.4409 44.7051 35.8126 40.2991L36.6326 40.0154Z" fill="#EE6723"/>
</g>
</g>
<defs>
<clipPath id="clip0_97_234">
<rect width="40.1143" height="36" fill="white" transform="translate(10 12)"/>
</clipPath>
<clipPath id="clip1_97_234">
<rect width="40.1143" height="32.4884" fill="white" transform="translate(10 14.3226)"/>
</clipPath>
</defs>
</svg>
